<svg xmlns="http://www.w3.org/2000/svg" width="95" height="100" viewBox="0 0 95 100"><defs><style>.cls-1{fill:#d35072;}.cls-2{fill:#f7f0f2;}.cls-3{fill:#fcb0b2;}.cls-4{fill:#f4f2f3;}</style></defs><title>-1</title><g id="Lag_24" data-name="Lag 24"><path class="cls-1" d="M86.83,41.88a59.71,59.71,0,0,0,3.33-7C96.22,19.69,95,5.38,87.37,2.9,83.18,1.53,78.64,4,74,6.22c-.32.16-5.54,3.91-5.81,4.13L60.44,17"/><path class="cls-1" d="M71.84,91.1c0,5-5.21,6.74-10.71,6.74s-11.59-1.21-11.59-6.16S55.23,81,60.73,81,71.84,86.15,71.84,91.1Z"/><path class="cls-1" d="M44.57,91.74c0,4.66-5.1,5.52-11.23,5.52s-11.15-.7-11.15-5.37,5.14-10.42,11.28-10.42S44.57,87.07,44.57,91.74Z"/><ellipse class="cls-1" cx="47.01" cy="53.91" rx="42.63" ry="39.5"/><path class="cls-1" d="M8.39,42.34a61.22,61.22,0,0,1-3.34-7C-1,20.17.19,5.85,7.79,3.36,12,2,16.53,4.41,21.12,6.66c.32.16,5.55,3.9,5.82,4.12l7.8,6.59"/><path class="cls-2" d="M50.19,48.06l-3.88-5,7.8-7.48L65,34.42,63.54,68.1l-9.7-1.28-.12-21.76Z"/><path class="cls-3" d="M45.29,77.71a19.07,19.07,0,0,1-2.64-.19,25,25,0,0,1-4.39-1l1-2.39h0c1.81.62,7.11,1.87,9.8.15A3.72,3.72,0,0,0,50.27,73,6.08,6.08,0,0,1,47.69,73c-2.58-.74-5.38-2.93-4.78-6.64a6.28,6.28,0,0,1,6-4.71,4.35,4.35,0,0,1,3.54,2.26,10.91,10.91,0,0,1,1.26,4.73c1.67-1.62,1.92-3.82.75-6.54l2.64-.93a9.29,9.29,0,0,1,.79,5.39,7.12,7.12,0,0,1-2.12,3.84,9.5,9.5,0,0,1-2.15,1.54,6.4,6.4,0,0,1-2.91,4.46A10,10,0,0,1,45.29,77.71Zm3.35-13.53a3.62,3.62,0,0,0-2.92,2.52c-.14.86-.15,3,2.83,3.83a5,5,0,0,0,2.38-.31c0-.13,0-.26,0-.4a9.72,9.72,0,0,0-1-4.72c-.53-.88-1.05-.91-1.23-.92Z"/><path class="cls-4" d="M30.6,50.56l15.06-.67-.47,6.43-15-.24Z"/></g></svg>
