<svg xmlns="http://www.w3.org/2000/svg" width="225" height="230" viewBox="0 0 225 230"><defs><style>.cls-1{fill:#fdd4d7;}.cls-2,.cls-4{fill:#fcb0b2;}.cls-3{fill:#fdc9cd;}.cls-4{stroke:#f8c9cd;stroke-miterlimit:10;}.cls-5{fill:#f8c9cd;}</style></defs><title>Gris oppefra</title><g id="Lag_8" data-name="Lag 8"><path class="cls-1" d="M170.29,210c0,14.5-12.47,19.75-25.68,19.75s-27.77-3.56-27.77-18.07,13.63-31.32,26.83-31.32S170.29,195.51,170.29,210Z"/><path class="cls-1" d="M104.93,211.88c0,13.67-12.23,16.19-26.93,16.19S51.28,226,51.28,212.34s12.33-30.53,27-30.53S104.93,198.21,104.93,211.88Z"/><path class="cls-2" d="M158.06,228.78l-2.36-2,1.18,1-1.18-1c.25-.37,6.08-9.18,1.18-19.41l2.61-1.53C165.29,218,158.35,228.35,158.06,228.78Z"/><path class="cls-2" d="M146.14,231.69l-2.65-1.43,1.33.72-1.34-.71a20.82,20.82,0,0,0,1.1-5.86c.3-3.73.29-10.15-1.48-19.6l2.89-.67C149.62,223.5,146.29,231.37,146.14,231.69Z"/><path class="cls-2" d="M133,229.33c-.11-.38-2.82-9.51,0-22.11l2.87.77c-2.59,11.7-.06,20.21,0,20.3Z"/><path class="cls-2" d="M89,228.3l-2.19-2.19,0,0s2.83-4.35-.22-20.89l2.89-.66c1.42,7.68,1.83,13.9,1.22,18.48C90.21,226.7,89.22,228.06,89,228.3Z"/><path class="cls-2" d="M77.55,229.62c-1.22-.43-7.07-4-2.46-30.53l2.9.61c-4,23.22.42,26.8.47,26.82Z"/><path class="cls-2" d="M63.34,228.44a17.5,17.5,0,0,1-2.93-6.13A20.85,20.85,0,0,1,62.31,207l2.57,1.62c-5.26,10.18.59,17.54.65,17.62Z"/><ellipse class="cls-3" cx="113" cy="123.25" rx="107.5" ry="77.37"/><path class="cls-4" d="M201.43,167.22A80.44,80.44,0,0,0,200,154.44c-5.15-26.57-22.52-45-38.82-41.13-9,2.13-14.58,9.79-20.46,17.26-.41.52-5.84,10.63-6.09,11.21l-7,16.45"/><path class="cls-5" d="M126.59,57.92a41,41,0,0,1-5.88,2.67,50.63,50.63,0,0,1-10.58,2.62l-.71-7.47h0c4.63-.54,17.44-3.63,21.13-11.34a11,11,0,0,0,1.07-4.67,12.69,12.69,0,0,1-5.58,2.94c-6.41,1.15-15-1.21-18.18-11.65a18.72,18.72,0,0,1,.46-10.85c1.37-4.14,3.75-7.2,6.7-8.61,3.22-1.54,6.87-1,10.28,1.66,2.83,2.17,5.64,5.81,8.36,10.85,1.63-6.22-.46-12.27-6.22-18L132,.5a29.94,29.94,0,0,1,8.13,13.14,23.66,23.66,0,0,1,.07,12.58,26.74,26.74,0,0,1-2.76,6.58c1.58,5.56,1.3,10.64-.86,15.14A23.09,23.09,0,0,1,126.59,57.92Zm-9-39.38c-2.59,1.45-4.14,7.14-3.24,10.1.74,2.43,3.25,8,10.65,6.62.94-.17,2.86-1.47,4.71-3.65-.15-.34-.31-.69-.48-1-3.33-6.88-6-9.88-7.75-11.18-2.18-1.67-3.34-1.12-3.72-.94Z"/><path class="cls-4" d="M23.19,167.6a77.71,77.71,0,0,1,1.14-12.8c4.56-26.7,21.54-45.57,37.92-42.14,9,1.88,14.78,9.4,20.82,16.71.42.52,6.07,10.48,6.33,11l7.39,16.27"/></g></svg>