<svg xmlns="http://www.w3.org/2000/svg" width="230" height="235" viewBox="0 0 230 235"><defs><style>.cls-1,.cls-3{fill:#fdc9cd;}.cls-1{stroke:#f8c9cd;stroke-miterlimit:10;}.cls-2{fill:#fdd4d7;}.cls-4{fill:#fcb0b2;}</style></defs><title>Gris bagfra</title><g id="Lag_7" data-name="Lag 7"><path class="cls-1" d="M209.34,98.32a141,141,0,0,0,8-16.41c14.47-35.56,11.55-69.13-6.52-75-10-3.22-20.78,2.47-31.71,7.74-.77.37-13.2,9.13-13.85,9.67L146.67,39.78"/><path class="cls-2" d="M173.77,213.65c0,11.61-12.38,15.81-25.48,15.81s-27.57-2.85-27.57-14.46,13.53-25.06,26.63-25.06S173.77,202.05,173.77,213.65Z"/><path class="cls-2" d="M108.9,215.15c0,10.93-12.14,12.95-26.73,12.95s-26.52-1.65-26.52-12.58,12.24-24.43,26.83-24.43S108.9,204.21,108.9,215.15Z"/><ellipse class="cls-3" cx="114.71" cy="126.47" rx="101.42" ry="92.59"/><path class="cls-4" d="M128.62,171.26a47,47,0,0,1-6.29-.44,62.2,62.2,0,0,1-10.44-2.36l2.41-5.62h0c4.32,1.46,16.92,4.38,23.32.35a8.44,8.44,0,0,0,2.83-2.9,14.65,14.65,0,0,1-6.12-.14c-6.14-1.74-12.81-6.86-11.38-15.58a13.42,13.42,0,0,1,4.82-7.56,13.77,13.77,0,0,1,9.42-3.47,10.41,10.41,0,0,1,8.43,5.29c1.63,2.69,2.63,6.41,3,11.09,4-3.78,4.57-8.94,1.79-15.32l6.28-2.18a21.46,21.46,0,0,1,1.87,12.63,16.57,16.57,0,0,1-5.05,9,22.63,22.63,0,0,1-5.12,3.59,15,15,0,0,1-6.9,10.46C138.15,170.21,133.84,171.26,128.62,171.26Zm8-31.72c-2.88,0-6.56,3.45-7,5.91-.33,2-.34,7,6.75,9a12.28,12.28,0,0,0,5.65-.72c0-.31,0-.62,0-.94-.16-6.24-1.35-9.47-2.33-11.08-1.25-2.06-2.5-2.13-2.91-2.15Z"/><path class="cls-1" d="M22.84,99.36A138.62,138.62,0,0,1,14.89,83C.41,47.39,3.33,13.83,21.41,8c10-3.22,20.77,2.48,31.71,7.75.76.37,13.19,9.13,13.85,9.66L85.51,40.82"/></g></svg>