<svg xmlns="http://www.w3.org/2000/svg" width="265" height="235" viewBox="0 0 265 235"><defs><style>.cls-1,.cls-5{fill:#fdc9cd;}.cls-2{fill:#fcb0b2;}.cls-3{fill:#f1989e;}.cls-4{fill:#fff;}.cls-5{stroke:#f8c9cd;stroke-miterlimit:10;}.cls-6{fill:#fdd4d7;}.cls-7{fill:#f8c9cd;}</style></defs><title>Gris</title><g id="Lag_3" data-name="Lag 3"><ellipse class="cls-1" cx="117.59" cy="124.48" rx="103.46" ry="92.99"/><ellipse class="cls-2" cx="118.33" cy="143.63" rx="61.45" ry="37.64"/><ellipse class="cls-3" cx="94.71" cy="141.27" rx="12.41" ry="9.84"/><ellipse class="cls-3" cx="141.66" cy="141.27" rx="12.41" ry="9.84"/><ellipse cx="88.65" cy="88.22" rx="14.73" ry="13.31"/><ellipse cx="148.91" cy="88.48" rx="15.03" ry="13.05"/><ellipse class="cls-4" cx="149.58" cy="85.79" rx="5.53" ry="4.85"/><ellipse class="cls-4" cx="89.33" cy="86.45" rx="5.53" ry="4.85"/><ellipse class="cls-4" cx="82.15" cy="93.53" rx="2.54" ry="2.23"/><ellipse class="cls-4" cx="143.63" cy="93.47" rx="2.54" ry="2.23"/><path class="cls-1" d="M24.3,94.84a46.75,46.75,0,0,1-18-25.65A49.81,49.81,0,0,1,4.4,55.65c0-22.34,14.69-41,34.34-45.71a82.39,82.39,0,0,1,9.65-1.13c16.21,0,43.15,30.1,40.19,30.29"/><path class="cls-5" d="M214.13,96.21a140.23,140.23,0,0,0,8.11-16.48C237,44,234,10.31,215.59,4.44c-10.17-3.23-21.2,2.49-32.35,7.78-.78.37-13.46,9.17-14.13,9.7l-18.92,15.5"/><path class="cls-6" d="M74.77,42.83s-31.49,15.81-39,37.58c0,0-28.74-48.9-15.55-60.06S74.77,42.83,74.77,42.83Z"/><path class="cls-3" d="M4.78,54.14c-.08,2.48,1.57,4.77,4.3,5.92,8,3.34,23.93,8,21.89-9.35-1.06-9-1.55-12.64-1.62-14S27.12,28,36.23,19.31C50.45,5.76,48.36,8.81,48.36,8.81S6.31,10.92,4.78,54.14Z"/><path class="cls-2" d="M4.72,49a5.51,5.51,0,0,0,3.34,5.31c6.52,3.18,19.7,7.82,18.76-7.35-.48-7.84-.73-11-.73-12.26S24.52,27,32.64,19.87C45.17,8.86,44.17,9.33,44.17,9.33S7.94,11.51,4.72,49Z"/><path class="cls-6" d="M206.84,78.58s-15.55-26.49-41.56-35.41c0,0,26-26.38,43-20.29S206.84,78.58,206.84,78.58Z"/><path class="cls-7" d="M230.15,142.45a48.85,48.85,0,0,1-6.41-.45,63.68,63.68,0,0,1-10.65-2.37l2.46-5.64h0c4.41,1.47,17.26,4.4,23.78.36a8.62,8.62,0,0,0,2.9-2.92,15.29,15.29,0,0,1-6.25-.13c-6.27-1.75-13.07-6.9-11.61-15.65a13.42,13.42,0,0,1,4.91-7.6,14.19,14.19,0,0,1,9.62-3.47,10.59,10.59,0,0,1,8.59,5.31c1.67,2.69,2.69,6.43,3.07,11.13,4.05-3.8,4.66-9,1.82-15.38l6.41-2.19c2,4.55,2.66,8.82,1.91,12.68a16.5,16.5,0,0,1-5.15,9,23.39,23.39,0,0,1-5.22,3.62,15.07,15.07,0,0,1-7.05,10.5C239.88,141.39,235.48,142.45,230.15,142.45Zm8.13-31.86c-2.93,0-6.69,3.46-7.1,5.93-.34,2-.35,7,6.88,9a12.66,12.66,0,0,0,5.77-.72c0-.31,0-.62,0-.94-.16-6.28-1.38-9.52-2.37-11.13-1.28-2.07-2.55-2.14-3-2.16Z"/><path class="cls-6" d="M181.13,213.08c0,11.66-12.64,15.88-26,15.88S127,226.09,127,214.44s13.8-25.17,27.16-25.17S181.13,201.43,181.13,213.08Z"/><path class="cls-6" d="M115,214.58c0,11-12.38,13-27.27,13S60.62,225.93,60.62,215,73.11,190.42,88,190.42,115,203.6,115,214.58Z"/><path class="cls-2" d="M168.74,228.16l-2.39-1.58,1.2.79-1.2-.79c.25-.3,6.16-7.37,1.2-15.6l2.64-1.22C176.06,219.48,169,227.81,168.74,228.16Z"/><path class="cls-2" d="M156.68,230.5,154,229.35l1.34.57-1.35-.56a14.31,14.31,0,0,0,1.11-4.71c.31-3,.3-8.16-1.5-15.76l2.93-.53C160.2,223.92,156.82,230.24,156.68,230.5Z"/><path class="cls-2" d="M143.35,228.6c-.12-.31-2.85-7.64,0-17.77l2.91.63c-2.62,9.39-.06,16.24,0,16.3Z"/><path class="cls-2" d="M98.84,227.77,96.63,226l0,.05s2.87-3.5-.23-16.79l2.93-.53c1.44,6.17,1.86,11.17,1.24,14.84C100,226.49,99,227.58,98.84,227.77Z"/><path class="cls-2" d="M87.22,228.84c-1.23-.35-7.15-3.18-2.49-24.54l2.94.5c-4.08,18.65.42,21.53.47,21.54Z"/><path class="cls-2" d="M72.84,227.89a13.51,13.51,0,0,1-3-4.93c-1-2.79-1.4-7.18,1.92-12.28l2.6,1.3c-5.32,8.18.61,14.09.67,14.15Z"/></g></svg>
