<svg xmlns="http://www.w3.org/2000/svg" xmlns:xlink="http://www.w3.org/1999/xlink" width="600" height="210" viewBox="0 0 600 210"><defs><style>.cls-1{fill:url(#Ikke-navngivet_forløb_70);}.cls-2{fill:url(#Ikke-navngivet_forløb_55);}.cls-3{fill:url(#Ikke-navngivet_forløb_81);}.cls-4{fill:url(#Ikke-navngivet_forløb_81-2);}</style><radialGradient id="Ikke-navngivet_forløb_70" cx="2267.7482" cy="70.5798" fx="2787.3127425269467" r="519.5697" gradientTransform="matrix(-0.0006, 0.8774, -0.4588, -0.0012, 395.3408, -1896.0414)" gradientUnits="userSpaceOnUse"><stop offset="0.5031" stop-color="#fff"/><stop offset="0.5474" stop-color="#eaf7fc"/><stop offset="0.7715" stop-color="#83ceee"/><stop offset="0.9271" stop-color="#42b5e5"/><stop offset="1" stop-color="#29abe2"/></radialGradient><radialGradient id="Ikke-navngivet_forløb_55" cx="1666.6823" cy="70.5798" fx="2110.3513026612795" r="443.6734" gradientTransform="matrix(-0.0008, 0.8774, -0.5458, -0.0012, 281.24, -1368.6917)" gradientUnits="userSpaceOnUse"><stop offset="0.3976" stop-color="#fdc9cd"/><stop offset="0.5412" stop-color="#f2a9b5"/><stop offset="0.8524" stop-color="#dc6985"/><stop offset="0.9995" stop-color="#d35072"/></radialGradient><linearGradient id="Ikke-navngivet_forløb_81" x1="23" y1="93.0613" x2="83.4605" y2="93.0613" gradientUnits="userSpaceOnUse"><stop offset="0.133" stop-color="#c7b299"/><stop offset="0.1549" stop-color="#c1ab92"/><stop offset="0.3297" stop-color="#947a62"/><stop offset="0.4951" stop-color="#70543d"/><stop offset="0.6466" stop-color="#573821"/><stop offset="0.7795" stop-color="#472711"/><stop offset="0.8792" stop-color="#42210b"/></linearGradient><linearGradient id="Ikke-navngivet_forløb_81-2" x1="667.9896" y1="93.3002" x2="724.7922" y2="93.3002" gradientTransform="matrix(-1, 0, 0, 1, 1243.9896, 0)" xlink:href="#Ikke-navngivet_forløb_81"/></defs><title>Tid 75%</title><g id="Lag_20" data-name="Lag 20"><rect class="cls-1" x="147.0137" y="0.5" width="428.9561" height="186" rx="81.4999"/><path class="cls-2" d="M457.1627,186.5H104.5578c-43.549,0-78.8524-41.6375-78.8524-93v0c0-51.3624,35.3034-93,78.8524-93H457.1627"/><path class="cls-3" d="M83.4605,3.1321S28.2071,10.82,23.0067,92.8287c0,0-1.95,76.1048,60.4538,90.1619,0,0-25.2763-7.7854-26.289-94.249C57.1715,88.7416,58.759,14.2374,83.4605,3.1321Z"/><path class="cls-4" d="M519.1974.9387s51.9106,7.8962,56.7963,92.1226c0,0,1.8321,78.1632-56.7963,92.6,0,0,23.7471-7.9959,24.6985-96.798C543.8959,88.8637,542.4045,12.3443,519.1974.9387Z"/></g></svg>