<svg xmlns="http://www.w3.org/2000/svg" xmlns:xlink="http://www.w3.org/1999/xlink" width="600" height="210" viewBox="0 0 600 210"><defs><style>.cls-1{fill:url(#Ikke-navngivet_forløb_70);}.cls-2{fill:url(#Ikke-navngivet_forløb_71);}.cls-3{fill:url(#Ikke-navngivet_forløb_81);}.cls-4{fill:url(#Ikke-navngivet_forløb_81-2);}</style><radialGradient id="Ikke-navngivet_forløb_70" cx="51.6116" cy="96.8698" fx="571.1762034902539" r="519.5697" gradientTransform="matrix(-0.0007, 0.7877, -0.4638, -0.0011, 400.2734, 64.4481)" gradientUnits="userSpaceOnUse"><stop offset="0.5031" stop-color="#fff"/><stop offset="0.5474" stop-color="#eaf7fc"/><stop offset="0.7715" stop-color="#83ceee"/><stop offset="0.9271" stop-color="#42b5e5"/><stop offset="1" stop-color="#29abe2"/></radialGradient><radialGradient id="Ikke-navngivet_forløb_71" cx="-898.8521" cy="96.8698" fx="-455.1830648627873" r="443.6734" gradientTransform="matrix(-0.0003, 0.7877, -0.19, -0.0011, 156.5433, 813.1618)" gradientUnits="userSpaceOnUse"><stop offset="0.3976" stop-color="#fdc9cd"/><stop offset="0.5411" stop-color="#f2a9b5"/><stop offset="0.8521" stop-color="#dc6985"/><stop offset="0.999" stop-color="#d35072"/></radialGradient><linearGradient id="Ikke-navngivet_forløb_81" x1="32.5" y1="104.8206" x2="87.0574" y2="104.8206" gradientUnits="userSpaceOnUse"><stop offset="0.133" stop-color="#c7b299"/><stop offset="0.1549" stop-color="#c1ab92"/><stop offset="0.3297" stop-color="#947a62"/><stop offset="0.4951" stop-color="#70543d"/><stop offset="0.6466" stop-color="#573821"/><stop offset="0.7795" stop-color="#472711"/><stop offset="0.8792" stop-color="#42210b"/></linearGradient><linearGradient id="Ikke-navngivet_forløb_81-2" x1="670.4896" y1="104.8206" x2="725.047" y2="104.8206" gradientTransform="matrix(-1, 0, 0, 1, 1244.9896, 0)" xlink:href="#Ikke-navngivet_forløb_81"/></defs><title>Tid 25%</title><g id="Lag_21" data-name="Lag 21"><rect class="cls-1" x="138.5" y="21.5" width="433.6247" height="167" rx="83.4999"/><path class="cls-2" d="M213.464,188.5H90.7447c-15.1566,0-27.4435-37.3842-27.4435-83.5v0c0-42.6851,10.5268-77.8894,24.1125-82.891a9.5856,9.5856,0,0,1,3.331-.6089H213.464"/><path class="cls-3" d="M87.0574,21.8939s-49.8587,7.09-54.5513,82.7122c0,0-1.76,70.1788,54.5513,83.1413,0,0-22.8084-7.1792-23.7223-86.91C63.3351,100.8373,64.7676,32.1344,87.0574,21.8939Z"/><path class="cls-4" d="M519.9426,21.8939s49.8587,7.09,54.5513,82.7122c0,0,1.76,70.1788-54.5513,83.1413,0,0,22.8084-7.1792,23.7223-86.91C543.6649,100.8373,542.2324,32.1344,519.9426,21.8939Z"/></g></svg>