<svg xmlns="http://www.w3.org/2000/svg" xmlns:xlink="http://www.w3.org/1999/xlink" width="600" height="210" viewBox="0 0 600 210"><defs><style>.cls-1{fill:url(#Ikke-navngivet_forløb_70);}.cls-2{fill:url(#Ikke-navngivet_forløb_81);}.cls-3{fill:url(#Ikke-navngivet_forløb_81-2);}</style><radialGradient id="Ikke-navngivet_forløb_70" cx="334.4539" cy="114.821" fx="854.0184563268094" r="519.5697" gradientTransform="matrix(-0.0008, 0.9198, -0.5883, -0.0013, 360.3221, -202.4896)" gradientUnits="userSpaceOnUse"><stop offset="0.5031" stop-color="#fff"/><stop offset="0.5474" stop-color="#eaf7fc"/><stop offset="0.7715" stop-color="#83ceee"/><stop offset="0.9271" stop-color="#42b5e5"/><stop offset="1" stop-color="#29abe2"/></radialGradient><linearGradient id="Ikke-navngivet_forløb_81" x1="17.5" y1="106.5762" x2="71.8806" y2="106.5762" gradientUnits="userSpaceOnUse"><stop offset="0.133" stop-color="#c7b299"/><stop offset="0.1549" stop-color="#c1ab92"/><stop offset="0.3297" stop-color="#947a62"/><stop offset="0.4951" stop-color="#70543d"/><stop offset="0.6466" stop-color="#573821"/><stop offset="0.7795" stop-color="#472711"/><stop offset="0.8792" stop-color="#42210b"/></linearGradient><linearGradient id="Ikke-navngivet_forløb_81-2" x1="647.7516" y1="104.5497" x2="699.2245" y2="104.5497" gradientTransform="matrix(-1, 0, 0, 1, 1214.9896, 0)" xlink:href="#Ikke-navngivet_forløb_81"/></defs><title>TId 0%</title><g id="Lag_22" data-name="Lag 22"><rect class="cls-1" x="17.5" y="7.5" width="550" height="195" rx="97.2747"/><path class="cls-2" d="M71.8806,11.5531s-49.6971,8.1238-54.3745,94.7774c0,0-1.754,80.4156,54.3745,95.2688,0,0-22.7345-8.2263-23.6454-99.5875C48.2352,102.0118,49.6631,23.2875,71.8806,11.5531Z"/><path class="cls-3" d="M515.7651,7.5s47.04,8.297,51.4671,96.7986c0,0,1.66,82.1307-51.4671,97.3007,0,0,21.5189-8.4018,22.3811-101.7114C538.1462,99.8879,536.7947,19.4846,515.7651,7.5Z"/></g></svg>