<svg xmlns="http://www.w3.org/2000/svg" xmlns:xlink="http://www.w3.org/1999/xlink" width="600" height="210" viewBox="0 0 600 210"><defs><style>.cls-1{fill:url(#Ikke-navngivet_forløb_70);}.cls-2{fill:url(#Ikke-navngivet_forløb_55);}.cls-3{fill:url(#Ikke-navngivet_forløb_81);}.cls-4{fill:url(#Ikke-navngivet_forløb_81-2);}</style><radialGradient id="Ikke-navngivet_forløb_70" cx="320.2097" cy="71.358" fx="839.774286692786" r="519.5697" gradientTransform="matrix(-0.0006, 0.7594, -0.4583, -0.001, 393.505, -138.6037)" gradientUnits="userSpaceOnUse"><stop offset="0.5031" stop-color="#fff"/><stop offset="0.5474" stop-color="#eaf7fc"/><stop offset="0.7715" stop-color="#83ceee"/><stop offset="0.9271" stop-color="#42b5e5"/><stop offset="1" stop-color="#29abe2"/></radialGradient><radialGradient id="Ikke-navngivet_forløb_55" cx="-23.7394" cy="71.358" fx="419.9296533901427" r="443.6734" gradientTransform="matrix(-0.0006, 0.7594, -0.3932, -0.001, 214.1486, 122.6026)" gradientUnits="userSpaceOnUse"><stop offset="0.3976" stop-color="#fdc9cd"/><stop offset="0.5412" stop-color="#f2a9b5"/><stop offset="0.8524" stop-color="#dc6985"/><stop offset="0.9995" stop-color="#d35072"/></radialGradient><linearGradient id="Ikke-navngivet_forløb_81" x1="24" y1="104.3271" x2="80.7393" y2="104.3271" gradientUnits="userSpaceOnUse"><stop offset="0.133" stop-color="#c7b299"/><stop offset="0.1549" stop-color="#c1ab92"/><stop offset="0.3297" stop-color="#947a62"/><stop offset="0.4951" stop-color="#70543d"/><stop offset="0.6466" stop-color="#573821"/><stop offset="0.7795" stop-color="#472711"/><stop offset="0.8792" stop-color="#42210b"/></linearGradient><linearGradient id="Ikke-navngivet_forløb_81-2" x1="668.9896" y1="104.1372" x2="727.864" y2="104.1372" gradientTransform="matrix(-1, 0, 0, 1, 1245.9896, 0)" xlink:href="#Ikke-navngivet_forløb_81"/></defs><title>Tid 50%</title><g id="Lag_18" data-name="Lag 18"><rect class="cls-1" x="146.3568" y="24" width="428.478" height="161" rx="80.4999"/><path class="cls-2" d="M341.5278,185H87.4851c-31.376,0-56.8112-36.041-56.8112-80.5v0c0-44.4589,25.4352-80.5,56.8112-80.5H341.5278"/><path class="cls-3" d="M80.7393,24.38S28.8866,31.2146,24.0063,104.12c0,0-1.83,67.6574,56.733,80.1541,0,0-23.7206-6.9212-24.671-83.7876C56.0683,100.4868,57.5581,34.2524,80.7393,24.38Z"/><path class="cls-4" d="M518.1256,24s53.8039,6.8512,58.8678,79.93c0,0,1.899,67.818-58.8678,80.3444,0,0,24.6132-6.9376,25.5994-83.9865C543.725,100.2879,542.1791,33.8961,518.1256,24Z"/></g></svg>