<svg xmlns="http://www.w3.org/2000/svg" xmlns:xlink="http://www.w3.org/1999/xlink" width="600" height="210" viewBox="0 0 600 210"><defs><style>.cls-1{fill:url(#Ikke-navngivet_forløb_55);}.cls-2{fill:url(#Ikke-navngivet_forløb_81);}.cls-3{fill:url(#Ikke-navngivet_forløb_81-2);}</style><radialGradient id="Ikke-navngivet_forløb_55" cx="1657.5764" cy="45.9557" fx="2177.1409867857915" r="519.5697" gradientTransform="matrix(-0.0008, 0.8396, -0.5851, -0.0011, 329.1408, -1286.1845)" gradientUnits="userSpaceOnUse"><stop offset="0.3976" stop-color="#fdc9cd"/><stop offset="0.5412" stop-color="#f2a9b5"/><stop offset="0.8524" stop-color="#dc6985"/><stop offset="0.9995" stop-color="#d35072"/></radialGradient><linearGradient id="Ikke-navngivet_forløb_81" x1="23" y1="105.3141" x2="80.1808" y2="105.3141" gradientUnits="userSpaceOnUse"><stop offset="0.133" stop-color="#c7b299"/><stop offset="0.1549" stop-color="#c1ab92"/><stop offset="0.3297" stop-color="#947a62"/><stop offset="0.4951" stop-color="#70543d"/><stop offset="0.6466" stop-color="#573821"/><stop offset="0.7795" stop-color="#472711"/><stop offset="0.8792" stop-color="#42210b"/></linearGradient><linearGradient id="Ikke-navngivet_forløb_81-2" x1="667.9896" y1="105.7041" x2="724.8634" y2="105.7041" gradientTransform="matrix(-1, 0, 0, 1, 1243.9896, 0)" xlink:href="#Ikke-navngivet_forløb_81"/></defs><title>Tid 100%</title><g id="Lag_19" data-name="Lag 19"><rect class="cls-1" x="27.3843" y="16.5" width="547.0044" height="178" rx="88.9999"/><path class="cls-2" d="M80.1808,19.3578s-52.2562,7.3486-57.1744,85.7339c0,0-1.8444,72.7426,57.1744,86.1786,0,0-23.9052-7.4414-24.863-90.0851C55.3178,101.1852,56.8192,29.9725,80.1808,19.3578Z"/><path class="cls-3" d="M519.1262,16.9082s51.9756,7.5914,56.8675,88.5662c0,0,1.8344,75.1457-56.8675,89.0256,0,0,23.7769-7.6873,24.7295-93.0612C543.8557,101.4388,542.3624,27.8736,519.1262,16.9082Z"/></g></svg>